Simulation
nRows=23
nColumns=15
endheader
time  TH_x TH_y TH_z SC_y  SC_z  SC_x  AC_y  AC_z  AC_x  GH_y  GH_z  GH_yy  EL_x  PS_y
2.6910411985018725  0.000000  0.000000  0.000000  -23.490976079524174  5.01616248699622  -5.149053199992111  56.296274280529516  10.47232069771373  6.849444208718823  -11.305510374453798  2.963115085114165  40.62048505105448  15.879507781252999  120.000000
2.7312059925093632  0.000000  0.000000  0.000000  -23.487963992589346  5.105581389064238  -4.976786452773921  56.78645800483451  10.888601723733887  7.199299165304016  -23.587220891634416  0.7852969916302276  55.4019975902707  16.630302291571116  120.000000
2.771370786516854  0.000000  0.000000  0.000000  -23.616585903935874  5.219179377709379  -4.7776145818052695  57.19286660787566  11.25578518395584  7.486280401942033  -174.88171594984635  1.3730781889372548  -151.00520329004448  17.29699445254681  120.000000
2.8115355805243447  0.000000  0.000000  0.000000  -23.83201309971621  5.3467690812503  -4.580746251210217  57.51549784987899  11.561631009120713  7.70985159478415  -179.42179345851082  3.3621538380305327  -144.36664106781893  17.85345772922468  120.000000
2.851700374531835  0.000000  0.000000  0.000000  -24.096607294115426  5.480603309177471  -4.400481637794773  57.759324822355104  11.806675828581676  7.874953701075363  -179.28055387919076  5.255727232992936  -142.60232422021156  18.283680008585662  120.000000
2.8918651685393257  0.000000  0.000000  0.000000  -24.38219598046397  5.6141762647181155  -4.239701083897074  57.93328726310904  12.000691936513466  7.9920560170289034  -178.2127883406472  7.03430218959759  -141.95023013154653  18.583400200684235  120.000000
2.9320299625468165  0.000000  0.000000  0.000000  -24.67024208348001  5.742342010163586  -4.09511752759458  58.04633199705841  12.15571609166254  8.075738153158502  -176.82077903595973  8.684670932011734  -141.80278523977267  18.758755441795078  120.000000
2.972194756554307  0.000000  0.000000  0.000000  -24.948473221679834  5.8635418545712525  -3.9623548791036423  58.10580449637315  12.282682050432102  8.137438248046026  -175.29601553370833  10.196136950109334  -141.96388609636625  18.82347053103325  120.000000
3.012359550561798  0.000000  0.000000  0.000000  -25.209293495416244  5.980572308052946  -3.8395745968455683  58.11857865249312  12.390884665990615  8.182146278365119  -173.72821188456095  11.562011536377847  -142.33792908650545  18.796821367322625  120.000000
3.0525243445692882  0.000000  0.000000  0.000000  -25.448054308792194  6.096621687008066  -3.7281152293549638  58.0912920218911  12.485446968799195  8.213167735566945  -172.1779687634696  12.780452773120446  -142.85711764181283  18.701698477016915  120.000000
3.092689138576779  0.000000  0.000000  0.000000  -25.661116602711132  6.211591406682301  -3.6312104429297625  58.02957353813154  12.567553853694774  8.23414388347402  -170.68774493958048  13.85292937139083  -143.47072882620105  18.562526053524817  120.000000
3.1328539325842697  0.000000  0.000000  0.000000  -25.845772068329577  6.324308430472737  -3.5524871413165484  57.9395706524146  12.636073116643205  8.248107982065106  -169.29274596497902  14.78193983101672  -144.13479814460368  18.40152539649059  120.000000
3.1730187265917604  0.000000  0.000000  0.000000  -25.999923474806778  6.43366754305223  -3.4954601237611893  57.82741644283739  12.689228919937625  8.25770417386291  -168.02037850997996  15.569611801022303  -144.81286419199537  18.236487113259393  120.000000
3.2131835205992507  0.000000  0.000000  0.000000  -26.122059630099937  6.538408584415701  -3.463169663699621  57.698680904707004  12.725442431998804  8.265180796499045  -166.89111359867294  16.217357432819018  -145.4751544440832  18.079029525597935  120.000000
3.2533483146067415  0.000000  0.000000  0.000000  -26.21119768480616  6.637404787871448  -3.4580109283734948  57.558258771159316  12.743405726657276  8.272817859170697  -165.91982499254507  16.725801925897702  -146.0973657187185  17.93482924365237  120.000000
3.293513108614232  0.000000  0.000000  0.000000  -26.26671105621695  6.729635277663495  -3.481795456359052  57.41071501502407  12.742295660028445  8.282543927154991  -165.11791584437862  17.094763050767696  -146.65886257994325  17.804954722341947  120.000000
3.333677902621723  0.000000  0.000000  0.000000  -26.288384775150277  6.814249943926176  -3.5357430577714517  57.26002868625757  12.721682601979968  8.2961260242059  -164.49239328043788  17.323427348516834  -147.1435701580599  17.68755014914733  120.000000
3.3738426966292137  0.000000  0.000000  0.000000  -26.276590991346858  6.890625020712133  -3.620419632660493  57.10947148665529  12.681642080585307  8.314918124485288  -164.04693097198643  17.41058510365819  -147.5391647541803  17.579702030818094  120.000000
3.414007490636704  0.000000  0.000000  0.000000  -26.232314608296843  6.958384407918493  -3.735735584585234  56.96148941635429  12.622739962187053  8.340077253815833  -163.78179103386353  17.35463508404451  -147.83711294751458  17.478758613565084  120.000000
3.4541722846441947  0.000000  0.000000  0.000000  -26.157044157484087  7.017362011316069  -3.880883672418112  56.81770476776386  12.546140036429964  8.372380557547535  -163.69501615168002  17.153673445432172  -148.0317695090704  17.383100432913558  120.000000
3.4943370786516854  0.000000  0.000000  0.000000  -26.052821125965433  7.067711239314537  -4.054328578112495  56.67907156242833  12.453569454685852  8.412385491599526  -163.7831774539528  16.805564150230765  -148.11965364287263  17.292166457247696  120.000000
3.534501872659176  0.000000  0.000000  0.000000  -25.92187512577562  7.109772565359525  -4.25374084360345  56.54632583103638  12.347373929468674  8.460016874601683  -164.04403223753295  16.30768781533622  -148.09708236841493  17.205884289208406  120.000000
3.574666666666667  0.000000  0.000000  0.000000  -25.766713870976147  7.14409641245298  -4.47554024076735  56.419563042518554  12.23057318736288  8.515067731597613  -164.47601988156217  15.65716802313678  -147.96054993825092  17.123559493995316  120.000000
